<?xml version="1.0" standalone="no"?>
<!DOCTYPE svg PUBLIC "-//W3C//DTD SVG 20010904//EN"
 "http://www.w3.org/TR/2001/REC-SVG-20010904/DTD/svg10.dtd">
<svg version="1.0" xmlns="http://www.w3.org/2000/svg"
 width="1024.000000pt" height="1024.000000pt" viewBox="0 0 1024.000000 1024.000000"
 preserveAspectRatio="xMidYMid meet">

<g transform="translate(0.000000,1024.000000) scale(0.100000,-0.100000)"
fill="#000000" stroke="none">
<path d="M2243 7019 c-167 -21 -383 -105 -540 -209 -114 -75 -283 -262 -377
-417 -49 -80 -120 -283 -140 -403 -9 -52 -18 -147 -22 -210 -3 -63 -12 -160
-20 -216 -11 -76 -14 -160 -11 -335 4 -200 8 -254 31 -374 56 -289 118 -442
317 -777 55 -93 205 -285 299 -382 122 -126 371 -326 530 -426 343 -215 685
-341 1065 -395 23 -3 50 -7 60 -9 11 -2 106 -10 211 -17 169 -11 216 -11 397
4 461 39 899 142 1287 305 358 150 476 205 795 365 528 265 864 404 1135 469
120 28 290 35 362 14 111 -32 191 -141 173 -235 -10 -54 -20 -67 -77 -95 -72
-36 -103 -34 -144 9 -42 45 -50 88 -30 158 9 30 16 62 16 69 0 24 -47 38 -126
38 -65 0 -78 -3 -99 -24 -52 -52 -95 -177 -95 -276 0 -171 118 -376 285 -496
157 -112 299 -150 520 -141 174 7 274 31 409 97 250 121 416 311 475 541 41
159 45 390 11 543 -23 103 -108 291 -181 398 -39 57 -48 91 -28 103 6 4 70 6
142 6 186 -3 557 10 557 19 0 4 -26 27 -57 51 -192 143 -280 271 -384 554 -52
142 -122 324 -230 597 -38 97 -104 268 -145 380 -42 111 -101 268 -131 348
-68 183 -74 228 -40 303 l26 56 -487 3 c-274 2 -496 7 -507 12 -11 5 7 -15 40
-45 140 -126 219 -223 210 -256 -8 -35 -117 -285 -196 -454 -61 -131 -155
-348 -354 -824 -34 -82 -74 -170 -88 -194 l-25 -43 -40 54 c-22 30 -68 97
-102 149 l-62 94 34 24 c18 14 83 74 144 135 99 100 114 119 143 190 51 124
64 199 58 366 -4 134 -7 153 -40 248 -60 175 -149 288 -304 389 -125 82 -209
114 -381 144 -35 7 -278 10 -617 10 -308 0 -594 3 -635 8 -41 4 -77 6 -79 5
-2 -2 44 -49 102 -104 58 -56 128 -129 155 -163 62 -78 64 -93 51 -383 -6
-147 -5 -398 3 -764 11 -517 8 -640 -12 -640 -10 0 -171 200 -241 300 -26 36
-77 110 -114 164 l-67 99 58 51 c141 121 227 238 271 370 25 74 27 93 27 231
-1 179 -15 250 -79 381 -106 219 -353 394 -612 434 -74 12 -1437 20 -1425 9 4
-4 41 -32 82 -64 71 -53 164 -148 238 -242 l32 -41 -1 -263 c0 -145 -4 -273
-8 -284 -6 -15 -15 3 -40 80 -70 215 -188 387 -369 538 -158 132 -323 221
-487 263 -84 21 -127 26 -270 28 -93 2 -198 0 -232 -5z m353 -164 c163 -23
294 -78 454 -190 156 -110 249 -213 320 -355 49 -98 99 -242 115 -337 18 -101
20 -334 4 -350 -6 -6 -13 -33 -14 -60 -2 -26 -17 -86 -33 -133 -48 -138 -46
-135 -114 -149 -33 -7 -99 -24 -146 -38 -48 -14 -133 -38 -188 -52 l-102 -27
55 61 c66 74 146 230 173 339 38 152 19 389 -43 527 -86 194 -242 337 -439
404 -72 24 -98 28 -193 28 -116 0 -201 -18 -336 -69 -173 -65 -377 -322 -420
-529 -18 -89 -12 -234 15 -375 26 -136 58 -219 108 -283 18 -23 26 -37 18 -31
-8 7 -51 23 -95 37 -44 14 -123 42 -175 62 -52 19 -113 42 -136 51 -44 16 -60
40 -70 102 -3 21 -10 55 -15 77 -4 22 -9 50 -9 63 0 22 0 22 38 6 20 -9 55
-22 76 -29 24 -7 42 -20 47 -33 9 -23 24 -29 34 -13 3 6 36 -6 73 -25 147 -78
135 -45 -19 49 -140 85 -215 121 -236 113 -14 -6 -15 8 -10 141 6 162 26 253
87 388 83 184 266 392 430 488 227 132 479 180 746 142z m3987 -45 c193 -50
357 -178 427 -334 104 -232 89 -432 -48 -633 -75 -110 -155 -171 -272 -207
-30 -10 -64 -21 -75 -26 -31 -13 -252 -29 -432 -32 l-163 -3 -1 -35 c-1 -19
-4 -82 -8 -140 l-6 -105 -120 3 c-66 1 -142 6 -170 10 l-50 7 0 705 0 705 -37
52 c-21 28 -38 52 -38 54 0 2 206 3 457 2 423 -3 464 -5 536 -23z m1501 20
l183 0 -5 -28 c-2 -17 19 -87 57 -189 34 -89 61 -166 61 -170 0 -5 15 -47 34
-93 44 -111 154 -396 207 -535 54 -144 102 -267 128 -334 12 -29 21 -55 19
-56 -2 -1 -50 9 -108 22 -307 71 -269 67 -469 60 -187 -6 -303 1 -485 29 -108
16 -125 22 -105 35 9 6 1 9 -23 9 -54 0 -141 -36 -177 -72 -17 -18 -31 -29
-31 -25 0 18 194 469 290 672 59 127 129 284 155 350 26 66 58 141 71 167 29
58 30 97 4 131 -24 30 -25 41 -4 33 9 -3 98 -6 198 -6z m-3266 -32 c109 -40
168 -76 247 -150 136 -127 202 -326 176 -531 -14 -107 -32 -151 -106 -263 -84
-125 -169 -191 -324 -251 l-23 -9 34 -44 c70 -94 188 -270 181 -271 -4 -1 -93
-1 -198 1 l-190 2 -20 26 c-11 14 -20 33 -20 42 0 9 -7 14 -20 12 -12 -2 -16
0 -9 5 17 13 -7 58 -31 58 -14 0 -38 25 -78 80 l-57 80 -100 0 -100 0 0 -49
c0 -41 -2 -47 -14 -37 -12 10 -18 6 -32 -18 -10 -17 -34 -37 -54 -45 -66 -26
-252 -77 -259 -71 -3 4 -5 306 -4 671 1 381 -2 675 -7 689 -5 13 -26 42 -46
65 l-37 41 509 -3 509 -3 73 -27z m-2311 -433 c109 -16 236 -85 315 -173 47
-52 106 -159 130 -235 25 -82 35 -246 18 -329 -6 -35 -14 -67 -17 -72 -3 -5
-23 27 -44 70 -49 105 -170 236 -261 284 -92 49 -149 59 -322 57 -178 -3 -203
-11 -372 -112 -59 -36 -109 -65 -111 -65 -9 0 -1 69 16 130 28 100 74 184 142
262 99 110 209 172 339 188 60 8 81 7 167 -5z m-27 -546 c100 -16 207 -90 233
-161 5 -15 3 -16 -21 -7 -15 6 -34 17 -42 24 -25 22 -98 45 -145 45 -61 0
-188 -35 -253 -70 -130 -69 -224 -157 -279 -262 l-20 -38 -33 91 c-36 101 -35
128 4 186 32 47 118 117 182 149 98 48 240 65 374 43z m135 -251 c14 -6 25
-14 25 -17 -1 -20 -23 -32 -74 -42 -68 -12 -202 -69 -264 -111 -34 -24 -51
-47 -88 -124 -45 -94 -57 -108 -68 -78 -36 94 91 277 239 345 87 39 179 50
230 27z m1035 -394 c0 -134 -4 -233 -10 -244 -8 -14 -18 -18 -38 -14 -15 3
-71 11 -124 17 l-97 12 79 125 c71 111 103 174 154 303 29 72 36 34 36 -199z
m-897 155 c32 -15 33 -19 7 -52 -19 -23 -57 -39 -152 -62 -23 -6 -27 -3 -33
25 -4 20 -15 34 -26 37 -10 3 -19 11 -19 18 0 8 -3 20 -6 28 -4 11 3 17 23 20
47 9 176 0 206 -14z m1629 -73 c13 -19 70 -96 127 -172 57 -77 115 -155 129
-174 14 -19 39 -50 56 -69 17 -18 26 -35 21 -37 -6 -3 -35 -20 -65 -40 -162
-107 -343 -171 -670 -238 -124 -26 -254 -53 -290 -61 -114 -25 -240 -21 -240
9 0 35 40 44 113 25 28 -8 59 -9 92 -3 47 8 51 12 73 58 13 27 26 73 29 103 5
49 8 53 27 46 32 -11 636 -3 674 9 23 7 32 15 28 25 -3 8 -6 24 -6 35 0 12
-25 44 -59 77 -69 66 -81 98 -81 221 0 86 10 220 16 220 2 0 14 -15 26 -34z
m1871 -80 c79 -104 97 -130 97 -138 0 -4 -19 -12 -42 -19 -24 -6 -60 -18 -81
-25 -20 -8 -39 -14 -42 -14 -2 0 -5 68 -7 151 -2 125 -1 148 10 132 7 -10 36
-49 65 -87z m2019 45 c16 -6 28 -20 32 -38 4 -15 27 -71 50 -123 42 -91 64
-160 52 -160 -3 0 -59 27 -125 60 -142 71 -258 112 -408 141 l-112 22 25 32
c13 18 24 36 24 41 0 6 5 15 11 21 14 14 416 18 451 4z m-6922 -172 c59 -99
236 -351 292 -415 200 -230 576 -475 894 -584 219 -75 525 -119 830 -120 285
-2 679 71 1024 189 214 73 710 271 940 376 345 157 1127 400 1420 441 58 8
146 22 195 31 133 24 557 23 720 -1 198 -29 447 -102 580 -168 69 -35 206
-128 267 -181 132 -116 249 -344 283 -552 22 -139 19 -150 -19 -70 -47 99
-110 178 -244 305 -119 113 -224 186 -340 234 -119 50 -287 97 -395 111 -296
39 -769 -6 -1078 -104 -52 -16 -130 -39 -174 -51 -144 -40 -667 -233 -720
-266 -11 -7 -72 -33 -135 -57 -63 -25 -167 -68 -230 -97 -63 -28 -164 -72
-225 -97 -60 -24 -153 -64 -205 -88 -52 -24 -151 -62 -220 -85 -69 -24 -147
-51 -173 -61 -148 -58 -523 -144 -808 -185 -274 -40 -723 -7 -1050 76 -416
106 -905 413 -1192 749 -62 73 -82 90 -87 77 -8 -25 -133 239 -165 349 -27 96
-65 301 -65 350 l1 30 22 -38 c12 -22 38 -65 57 -98z m797 -27 c-24 -5 -67 6
-67 17 0 5 19 4 43 -2 26 -7 35 -13 24 -15z m1378 -271 c49 -22 73 -48 85 -91
l9 -32 -42 8 c-74 15 -168 9 -221 -15 -27 -11 -46 -24 -43 -27 5 -6 -34 -56
-62 -78 -7 -6 -29 -26 -49 -44 -33 -31 -37 -32 -68 -20 -45 18 -154 116 -154
138 0 36 182 136 298 165 85 20 198 18 247 -4z m1448 -100 c-4 -3 -8 -13 -8
-21 0 -18 -265 -130 -476 -200 -80 -27 -168 -59 -195 -70 -27 -12 -95 -32
-151 -46 -56 -13 -119 -30 -140 -39 -122 -47 -200 -57 -475 -61 -304 -5 -313
-4 -593 76 -151 43 -286 98 -245 101 10 0 11 2 3 6 -17 6 -16 43 2 67 8 11 15
28 15 38 0 10 4 18 9 18 5 0 15 2 23 5 7 3 40 -20 73 -52 75 -72 229 -154 335
-178 57 -13 119 -16 253 -16 98 1 193 3 210 6 18 2 68 9 112 15 113 16 481 96
601 130 55 16 212 74 349 129 137 55 262 99 277 99 16 -1 26 -4 21 -7z m-2530
-178 c-7 -2 -19 -2 -25 0 -7 3 -2 5 12 5 14 0 19 -2 13 -5z m5268 -113 c144
-16 272 -55 405 -120 101 -50 138 -74 202 -135 131 -123 193 -272 193 -456 0
-84 -8 -129 -23 -129 -5 0 -6 4 -3 10 3 5 1 18 -4 28 -8 15 -26 21 -78 26 -37
3 -91 10 -119 14 -36 6 -51 5 -48 -2 2 -6 -4 -16 -15 -23 -18 -11 -18 -10 -5
34 64 212 -95 450 -361 538 -103 35 -102 35 -227 42 -123 7 -146 23 -33 23 48
0 87 6 105 15 20 10 43 13 77 8 54 -7 57 2 3 11 -141 26 -445 12 -615 -29
-311 -74 -665 -212 -1130 -442 -253 -125 -491 -233 -665 -303 -52 -21 -144
-59 -205 -85 -203 -86 -651 -218 -776 -228 -24 -2 -52 -7 -62 -12 -9 -4 -28
-4 -41 -1 -15 4 -26 1 -29 -7 -4 -9 -7 -9 -18 1 -7 6 -24 12 -39 13 -14 0 -19
3 -12 6 31 12 -3 54 -39 47 l-24 -5 24 11 c14 6 30 9 37 6 8 -3 11 1 7 10 -4
10 3 14 26 15 17 1 52 2 79 3 26 2 74 12 107 23 33 12 119 40 190 62 360 111
619 216 1160 469 539 251 735 332 1044 428 265 83 431 119 596 130 50 4 92 8
94 10 8 7 137 4 222 -6z m-214 -811 c44 -48 172 -139 193 -139 19 0 9 -19 -30
-58 -22 -23 -34 -42 -28 -44 9 -3 9 -6 1 -11 -18 -11 -114 73 -155 137 -42 65
-72 150 -82 236 l-7 55 30 -62 c16 -35 52 -86 78 -114z"/>
<path d="M3320 5544 l-25 -15 25 7 c14 3 32 10 40 15 13 7 13 8 0 8 -8 0 -26
-6 -40 -15z"/>
<path d="M6012 6216 c2 -184 6 -337 9 -340 2 -2 87 -10 188 -16 201 -12 242
-8 338 37 214 99 238 415 44 558 -94 68 -134 78 -346 81 -104 2 -201 6 -214 9
l-23 6 4 -335z m425 135 c45 -12 109 -76 120 -119 9 -36 -4 -103 -25 -131 -41
-55 -76 -66 -210 -65 -67 1 -124 3 -126 5 -2 2 -6 78 -9 169 l-6 165 107 -6
c59 -4 126 -12 149 -18z"/>
<path d="M8021 6137 c-25 -62 -69 -170 -98 -240 -30 -71 -57 -144 -60 -163
l-6 -34 222 0 c121 0 221 2 221 5 0 19 -214 521 -229 537 -3 3 -26 -44 -50
-105z"/>
<path d="M4180 6196 c0 -314 1 -336 18 -335 9 0 112 6 228 12 205 12 213 14
275 44 86 43 129 81 164 144 27 49 30 62 30 149 0 80 -4 103 -24 144 -31 63
-84 116 -147 147 -47 23 -58 24 -296 27 l-248 3 0 -335z m465 146 c83 -47 108
-124 65 -200 -39 -69 -83 -86 -238 -90 l-133 -4 2 162 1 162 132 -4 c115 -3
136 -6 171 -26z"/>
<path d="M4630 5590 c-50 -6 -47 -7 35 -8 61 -1 85 1 75 8 -16 10 -25 10 -110
0z"/>
<path d="M8491 3564 c0 -11 3 -14 6 -6 3 7 2 16 -1 19 -3 4 -6 -2 -5 -13z"/>
<path d="M6735 3699 c-113 -14 -240 -83 -342 -183 -46 -45 -83 -90 -83 -100 0
-18 7 -19 93 -13 57 4 119 16 164 31 40 14 94 28 120 32 36 5 58 17 92 49 26
22 81 70 125 105 57 46 74 65 64 71 -24 13 -159 18 -233 8z"/>
</g>
</svg>
